<svg width="32" height="32" viewBox="0 0 32 32" fill="none" class="" xmlns="http://www.w3.org/2000/svg"><path class="" d="M2 10.6667H19.3333V24H12.6667C12.6667 26.2133 10.88 28 8.66667 28C6.45333 28 4.66667 26.2133 4.66667 24H2V10.6667ZM8.66667 22.6667C7.93333 22.6667 7.33333 23.2667 7.33333 24C7.33333 24.7333 7.93333 25.3333 8.66667 25.3333C9.4 25.3333 10 24.7333 10 24C10 23.2667 9.4 22.6667 8.66667 22.6667ZM14.3047 16.6953L10.9427 13.3333L9.99992 14.2761L11.7238 16H7.33333V17.3333H11.782L10 19.1153L10.9428 20.0581L14.3047 16.6953Z" fill="#191F1C"></path><path class="" d="M20.6667 24V13.3333H27.3333C28.8061 13.3333 30 14.5272 30 16V24H28.6667C28.6667 26.2133 26.88 28 24.6667 28C22.4533 28 20.6667 26.2133 20.6667 24ZM24.6667 25.3333C23.9333 25.3333 23.3333 24.7333 23.3333 24C23.3333 23.2667 23.9333 22.6667 24.6667 22.6667C25.4 22.6667 26 23.2667 26 24C26 24.7333 25.4 25.3333 24.6667 25.3333Z" fill="#191F1C"></path><path class="" d="M10 5.33334H4.66667L2 9.33334H10V5.33334Z" fill="#191F1C"></path><path class="" d="M11.3333 9.33334H19.3333L16.6667 5.33334H11.3333V9.33334Z" fill="#191F1C"></path></svg>