<svg width="32" height="32" viewBox="0 0 32 32" fill="none" class="" xmlns="http://www.w3.org/2000/svg"><path class="" d="M16 29.3333C23.3638 29.3333 29.3333 23.3638 29.3333 16C29.3333 8.6362 23.3638 2.66666 16 2.66666C8.63619 2.66666 2.66666 8.6362 2.66666 16C2.66666 23.3638 8.63619 29.3333 16 29.3333ZM13.6071 13.1111C13.6071 13.9556 14.2764 14.4978 16.3576 15.0222C18.4388 15.5467 20.6667 16.4089 20.6667 18.9333C20.6667 20.7556 19.2456 21.76 17.4578 22.0889V24H14.7073V22.0711C12.9469 21.7067 11.4433 20.6133 11.3333 18.6667H13.3503C13.4512 19.7156 14.1938 20.5333 16.0825 20.5333C18.1087 20.5333 18.5579 19.5556 18.5579 18.9422C18.5579 18.1156 18.0995 17.3333 15.8075 16.8C13.2495 16.2044 11.4984 15.1822 11.4984 13.1289C11.4984 11.4133 12.9286 10.2933 14.7073 9.92V8H17.4578V9.94666C19.3739 10.4 20.3366 11.8044 20.4008 13.3333H18.3746C18.3196 12.2222 17.7145 11.4667 16.0825 11.4667C14.5331 11.4667 13.6071 12.1422 13.6071 13.1111Z" fill="#191F1C"></path></svg>