<svg width="24" height="24" viewBox="0 0 24 24" fill="none" class="" xmlns="http://www.w3.org/2000/svg"><path class="" d="M11.9953 2.4352C15.1111 2.4352 15.4768 2.44908 16.7083 2.50464C17.8472 2.55557 18.4629 2.74538 18.875 2.90742C19.4213 3.12038 19.8102 3.37038 20.2176 3.77779C20.625 4.1852 20.8796 4.57408 21.0879 5.12038C21.2453 5.53242 21.4398 6.14816 21.4907 7.28705C21.5463 8.51853 21.5602 8.88427 21.5602 12C21.5602 15.1158 21.5463 15.4815 21.4907 16.713C21.4398 17.8519 21.25 18.4676 21.0879 18.8796C20.875 19.4259 20.625 19.8148 20.2176 20.2222C19.8102 20.6296 19.4213 20.8843 18.875 21.0926C18.4629 21.25 17.8472 21.4445 16.7083 21.4954C15.4768 21.5509 15.1111 21.5648 11.9953 21.5648C8.87961 21.5648 8.51387 21.5509 7.28239 21.4954C6.1435 21.4445 5.52776 21.2546 5.11572 21.0926C4.56942 20.8796 4.18054 20.6296 3.77313 20.2222C3.36572 19.8148 3.11109 19.4259 2.90276 18.8796C2.74535 18.4676 2.55091 17.8519 2.49998 16.713C2.44442 15.4815 2.43054 15.1158 2.43054 12C2.43054 8.88427 2.44442 8.51853 2.49998 7.28705C2.55091 6.14816 2.74072 5.53242 2.90276 5.12038C3.11572 4.57408 3.36572 4.1852 3.77313 3.77779C4.18054 3.37038 4.56942 3.11575 5.11572 2.90742C5.52776 2.75001 6.1435 2.55557 7.28239 2.50464C8.51387 2.44445 8.87961 2.4352 11.9953 2.4352ZM11.9953 0.333344C8.82868 0.333344 8.43054 0.347232 7.18517 0.402788C5.94442 0.458344 5.0972 0.657418 4.35646 0.944455C3.58794 1.24075 2.93979 1.64353 2.29165 2.29168C1.6435 2.93983 1.24535 3.5926 0.944424 4.35649C0.657387 5.09723 0.458313 5.94445 0.402757 7.18982C0.347202 8.43056 0.333313 8.82871 0.333313 11.9954C0.333313 15.162 0.347202 15.5602 0.402757 16.8056C0.458313 18.0463 0.657387 18.8935 0.944424 19.6389C1.24072 20.4074 1.6435 21.0556 2.29165 21.7037C2.93979 22.3519 3.59257 22.75 4.35646 23.0509C5.0972 23.338 5.94442 23.537 7.18979 23.5926C8.43516 23.6482 8.82868 23.662 12 23.662C15.1713 23.662 15.5648 23.6482 16.8102 23.5926C18.0509 23.537 18.8981 23.338 19.6435 23.0509C20.412 22.7546 21.0602 22.3519 21.7083 21.7037C22.3565 21.0556 22.7546 20.4028 23.0555 19.6389C23.3426 18.8982 23.5416 18.0509 23.5972 16.8056C23.6528 15.5602 23.6666 15.1667 23.6666 11.9954C23.6666 8.82408 23.6528 8.43057 23.5972 7.18519C23.5416 5.94445 23.3426 5.09723 23.0555 4.35186C22.7592 3.58334 22.3565 2.9352 21.7083 2.28705C21.0602 1.6389 20.4074 1.24075 19.6435 0.939825C18.9028 0.652788 18.0555 0.453714 16.8102 0.398158C15.5602 0.347232 15.162 0.333344 11.9953 0.333344Z" fill="#191F1C"></path><path class="" d="M11.9953 6.00464C8.68976 6.00464 6.00458 8.68519 6.00458 11.9954C6.00458 15.3056 8.68976 17.9861 11.9953 17.9861C15.3009 17.9861 17.9861 15.3009 17.9861 11.9954C17.9861 8.68982 15.3009 6.00464 11.9953 6.00464ZM11.9953 15.8843C9.84717 15.8843 8.10643 14.1435 8.10643 11.9954C8.10643 9.84723 9.84717 8.10649 11.9953 8.10649C14.1435 8.10649 15.8842 9.84723 15.8842 11.9954C15.8842 14.1435 14.1435 15.8843 11.9953 15.8843Z" fill="#191F1C"></path><path class="" d="M18.2222 7.16669C18.9944 7.16669 19.6203 6.54072 19.6203 5.76854C19.6203 4.99636 18.9944 4.37039 18.2222 4.37039C17.45 4.37039 16.824 4.99636 16.824 5.76854C16.824 6.54072 17.45 7.16669 18.2222 7.16669Z" fill="#191F1C"></path></svg>