<svg width="24" height="24" viewBox="0 0 24 24" fill="none" class="" xmlns="http://www.w3.org/2000/svg"><path class="" d="M12.0096 0.333344C5.5612 0.333344 0.333313 5.55264 0.333313 11.9904C0.333313 16.9315 3.40854 21.153 7.7523 22.8512C7.64659 21.9301 7.5601 20.5102 7.79074 19.5028C8.00216 18.5913 9.15537 13.7078 9.15537 13.7078C9.15537 13.7078 8.80941 13.0074 8.80941 11.9808C8.80941 10.3594 9.75119 9.1505 10.9236 9.1505C11.9231 9.1505 12.4036 9.89886 12.4036 10.7911C12.4036 11.7889 11.7693 13.2856 11.433 14.6768C11.1543 15.8377 12.0192 16.7876 13.1628 16.7876C15.2386 16.7876 16.8338 14.6001 16.8338 11.4531C16.8338 8.66119 14.8253 6.71355 11.9519 6.71355C8.62681 6.71355 6.67597 9.19848 6.67597 11.7697C6.67597 12.7676 7.06037 13.8421 7.54088 14.4274C7.63698 14.5425 7.64659 14.648 7.61776 14.7632C7.53127 15.1278 7.32945 15.9241 7.29101 16.0872C7.24296 16.2983 7.11803 16.3462 6.897 16.2407C5.43627 15.5595 4.52331 13.4392 4.52331 11.7218C4.52331 8.04716 7.19491 4.66997 12.2402 4.66997C16.2861 4.66997 19.4382 7.54826 19.4382 11.4052C19.4382 15.4252 16.9011 18.6585 13.3838 18.6585C12.2018 18.6585 11.087 18.0444 10.7122 17.3153C10.7122 17.3153 10.126 19.5411 9.98184 20.088C9.72236 21.105 9.01122 22.3714 8.53071 23.1486C9.62626 23.4844 10.7795 23.6667 11.9903 23.6667C18.4387 23.6667 23.6666 18.4474 23.6666 12.0096C23.6858 5.55264 18.4579 0.333344 12.0096 0.333344Z" fill="#191F1C"></path></svg>