<svg width="32" height="32" viewBox="0 0 32 32" fill="none" class="" xmlns="http://www.w3.org/2000/svg"><path class="" d="M22.8895 21.3083C22.0255 20.2228 21.2371 19.2322 20.4488 18.2862C20.3093 18.5651 18.6358 21.2149 16.9623 23.3068L17.4227 23.8515C18.7752 25.4522 20.0037 26.906 21.0066 27.909C21.8976 28.9273 23.3695 29.1323 24.574 28.4181L25.4892 29.3333L26.4753 28.3472L25.5603 27.4322C26.0365 26.5487 25.9597 25.3671 25.3299 24.4225L25.0511 24.0041C24.2631 23.0342 23.5538 22.143 22.8895 21.3083Z" fill="#191F1C"></path><path class="" d="M22.2702 8.94238C22.2787 8.66346 22.2871 8.38454 22.2618 8.10562C21.9829 5.03749 19.3331 2.66666 16.1255 2.66666H15.9861C13.0574 2.66666 10.6866 4.75857 10.1287 7.54778C10.0172 8.10562 9.98927 8.75103 9.98927 9.36076C9.98927 11.5921 11.105 14.2419 12.639 16.8916C11.105 18.9835 9.15251 21.4938 6.78168 24.1436C6.3633 24.7014 6.08438 25.3987 6.08438 25.9565C6.08438 26.4457 6.22738 26.9349 6.48551 27.3684L5.50671 28.3472L6.49285 29.3333L7.44658 28.3796C8.55134 29.1393 10.0687 28.9452 11.105 27.909C12.4996 26.5144 14.3125 24.283 16.1255 21.9122C17.3807 20.2387 18.7753 18.1468 19.3331 17.31L19.7515 16.4732C21.1461 13.963 22.2618 11.4527 22.2618 9.36076C22.2618 9.22135 22.266 9.0818 22.2702 8.94238ZM15.9861 11.4527C15.4702 10.5499 15.0098 9.59587 15.0098 8.524C15.1493 7.96616 15.4282 7.54778 15.8466 7.54778C16.265 7.54778 16.6644 7.96616 16.8038 8.524C16.8038 9.59082 16.5005 10.5524 15.9861 11.4527Z" fill="#191F1C"></path></svg>