<svg width="32" height="32" viewBox="0 0 32 32" fill="none" class="" xmlns="http://www.w3.org/2000/svg"><path class="" d="M15.3334 4.66667H7.33335L4.66669 8.66667H15.3334V4.66667Z" fill="#191F1C"></path><path class="" d="M16.6667 8.66667H27.3334L24.6667 4.66667H16.6667V8.66667Z" fill="#191F1C"></path><path class="" fill-rule="evenodd" clip-rule="evenodd" d="M27.3334 10H4.66669V27.3333H27.3334V10ZM15.3334 19.3333H10.6667C10.2985 19.3333 10 19.6318 10 20V25.3333C10 25.7015 10.2985 26 10.6667 26H15.3334V19.3333ZM16.6667 19.3333H21.3334C21.7015 19.3333 22 19.6318 22 20V25.3333C22 25.7015 21.7015 26 21.3334 26H16.6667V19.3333ZM18 12.6667C18 12.2985 17.7015 12 17.3334 12H14.6667C14.2985 12 14 12.2985 14 12.6667V16.6667C14 17.0349 14.2985 17.3333 14.6667 17.3333H17.3334C17.7015 17.3333 18 17.0349 18 16.6667V12.6667ZM20 12.6667C20 12.2985 20.2985 12 20.6667 12H23.3334C23.7015 12 24 12.2985 24 12.6667V16.6667C24 17.0349 23.7015 17.3333 23.3334 17.3333H20.6667C20.2985 17.3333 20 17.0349 20 16.6667V12.6667ZM12 12.6667C12 12.2985 11.7015 12 11.3334 12H8.66669C8.2985 12 8.00002 12.2985 8.00002 12.6667V16.6667C8.00002 17.0349 8.2985 17.3333 8.66669 17.3333H11.3334C11.7015 17.3333 12 17.0349 12 16.6667V12.6667Z" fill="#191F1C"></path></svg>