<svg width="24" height="24" viewBox="0 0 24 24" fill="none" class="" xmlns="http://www.w3.org/2000/svg"><path class="" d="M20.75 23.6667H3.24998C1.63998 23.6667 0.333313 22.36 0.333313 20.75V3.25001C0.333313 1.64001 1.63998 0.333344 3.24998 0.333344H20.75C22.36 0.333344 23.6666 1.64001 23.6666 3.25001V20.75C23.6666 22.36 22.36 23.6667 20.75 23.6667ZM9.29331 17.9267C14.7941 17.9267 17.8041 13.365 17.8041 9.41584C17.8041 9.28751 17.8041 9.15918 17.7983 9.03084C18.3816 8.61084 18.8891 8.08001 19.2916 7.47918C18.755 7.71834 18.1775 7.87584 17.5708 7.95168C18.1891 7.58418 18.6616 6.99501 18.8891 6.29501C18.3116 6.63918 17.67 6.88418 16.9875 7.01834C16.4391 6.43501 15.6633 6.07334 14.8058 6.07334C13.155 6.07334 11.8133 7.41501 11.8133 9.06584C11.8133 9.29918 11.8425 9.52668 11.8891 9.74834C9.40415 9.62584 7.19915 8.43001 5.72331 6.62168C5.46665 7.06501 5.32081 7.57834 5.32081 8.12668C5.32081 9.16501 5.85165 10.0808 6.65081 10.6175C6.16081 10.6 5.69998 10.4658 5.29748 10.2442C5.29748 10.2558 5.29748 10.2675 5.29748 10.285C5.29748 11.7317 6.32998 12.945 7.69498 13.2192C7.44415 13.2892 7.18165 13.3242 6.90748 13.3242C6.71498 13.3242 6.52831 13.3067 6.34748 13.2717C6.72665 14.4617 7.83498 15.325 9.14165 15.3483C8.11498 16.1533 6.82581 16.6317 5.42581 16.6317C5.18665 16.6317 4.94748 16.62 4.71415 16.5908C6.03248 17.4308 7.60748 17.9267 9.29331 17.9267Z" fill="#191F1C"></path></svg>