<svg width="28" height="28" viewBox="0 0 28 28" fill="none" class="" xmlns="http://www.w3.org/2000/svg"><path class="" fill-rule="evenodd" clip-rule="evenodd" d="M23.1079 6.3207C24.1154 6.59731 24.9109 7.38764 25.1761 8.38871C25.6666 10.2065 25.6666 14 25.6666 14C25.6666 14 25.6666 17.7936 25.1893 19.6113C24.9109 20.6255 24.1287 21.4159 23.1211 21.6793C21.2916 22.1667 13.9999 22.1667 13.9999 22.1667C13.9999 22.1667 6.70825 22.1667 4.89196 21.6793C3.88439 21.4027 3.08893 20.6124 2.82378 19.6113C2.33325 17.7936 2.33325 14 2.33325 14C2.33325 14 2.33325 10.2065 2.81052 8.38871C3.08893 7.37447 3.87113 6.58414 4.87871 6.3207C6.70825 5.83334 13.9999 5.83334 13.9999 5.83334C13.9999 5.83334 21.2916 5.83334 23.1079 6.3207ZM17.7121 14L11.6136 17.4511V10.5489L17.7121 14Z" fill="#191F1C"></path></svg>